<svg xmlns="http://www.w3.org/2000/svg" viewBox="0 0 268.22 104.24"><defs><style>.cls-1{fill:#fff;stroke:#fff;stroke-miterlimit:10;stroke-width:3px;}.cls-2{fill:#0ceb00;}</style></defs><title>logo-ant</title><g id="Layer_2" data-name="Layer 2"><g id="Layer_1-2" data-name="Layer 1"><path class="cls-1" d="M67,95.89c-.41-.89-1-2.18-1.69-3.86s-1.55-3.64-2.48-5.85-1.93-4.63-3-7.24-2.19-5.32-3.32-8.14H25.67L15.29,95.89h-13l39-91.55,2.59,6.15Q45.68,15,48.28,21.17t5.79,13.75q3.2,7.53,6.51,15.26L67.1,65.37Q70.3,72.85,73,79.12t4.52,10.67c1.24,2.94,2.11,5,2.59,6.1ZM30.25,59.7H52.08C51,57.05,49.89,54.5,48.88,52s-1.93-4.7-2.77-6.75-1.59-3.84-2.23-5.37-1.13-2.73-1.45-3.61a17.42,17.42,0,0,1-.54-1.69c-.28-1-.5-1.85-.66-2.66a24.74,24.74,0,0,1-.73,2.66c-.32,1-.52,1.53-.6,1.69Z"/><path class="cls-1" d="M161.59,8.44V99.87a89.51,89.51,0,0,0-6.51-7L144,81.78q-6.27-6.27-13.32-13.15T117.33,55.54q-6.27-6.21-11-11.09t-6.27-6.94l-2.29-3.13.36,3.85V95.89H84.89V4.34a63.27,63.27,0,0,0,4.4,4.83q3.08,3.14,7.23,7.3t9.17,9l10.13,9.77q5.13,5,10.13,9.71t9.17,8.86q4.15,4.11,7.18,7.24t4.22,4.7l2.29,3.38-.36-4.1V8.44Z"/><path class="cls-1" d="M227.93,8.44V21H205.86v74.9H192.71V21H171.12V8.44Z"/><path class="cls-2" d="M240.22,81.89a13.38,13.38,0,0,1,4.38-10.13,14,14,0,0,1,9.87-4.12,14.53,14.53,0,0,1,13.75,14.25,12.81,12.81,0,0,1-4.37,10.25,14.19,14.19,0,0,1-9.38,3.75,14.74,14.74,0,0,1-9.87-3.75A12.79,12.79,0,0,1,240.22,81.89Z"/></g></g></svg>